#!OML:ASF H:\Martial Arts Walks\Project 1\Capture day 1\Session 1\male.ASF
:FULLY-SPECIFIED
:DEGREES
783
root -5.92986 18.465 8.35249 -79.1219 35.3358 -88.0205
lowerback 39.518 -2.74111 4.01147
upperback 5.08747 0.95844 11.543
thorax -14.2837 0.72193 10.2289
lowerneck 1.54866 -12.7442 -12.9821
upperneck 5.83471 -19.4445 26.5507
head 5.53208 -9.41652 9.25995
rclavicle 5.56597e-014 -7.63333e-014
rhumerus -45.9469 3.50228 -61.4235
rradius 44.8231
rwrist 20.6226
rhand -20.6022 -44.4652
rfingers 7.12502
rthumb 5.75839 -74.3669
lclavicle 5.56597e-014 -7.63333e-014
lhumerus 45.6578 -29.0432 51.9411
lradius 76.7471
lwrist 33.0247
lhand -10.1865 5.42471
lfingers 7.12502
lthumb 15.804 34.7996
rfemur -74.0592 -47.4057 -10.091
rtibia 99.5481
rfoot -21.8066 -5.41226
rtoes -7.17584
lfemur -6.52663 3.8559 29.9174
ltibia -1.74931e-014
lfoot 2.66714 36.2318
ltoes 26.3044
784
root -5.95779 18.4283 8.48672 -82.1945 34.3006 -90.6442
lowerback 40.7863 -3.4919 5.53056
upperback 4.95289 0.929503 11.702
thorax -14.6987 0.657741 9.71416
lowerneck 1.77829 -12.9491 -13.2703
upperneck 5.91764 -19.7543 26.3394
head 5.58658 -9.59552 9.20155
rclavicle 1.59028e-014 3.18055e-015
rhumerus -45.674 1.96783 -60.3778
rradius 45.1806
rwrist 20.8872
rhand -20.8137 -44.8675
rfingers 7.12502
rthumb 5.55419 -74.7747
lclavicle 1.59028e-014 3.18055e-015
lhumerus 44.7827 -29.6565 52.5574
lradius 77.1961
lwrist 32.539
lhand -9.49431 5.00992
lfingers 7.12502
lthumb 16.4706 34.3308
rfemur -75.3243 -51.2864 -6.81602
rtibia 107.175
rfoot -22.7013 -2.76072
rtoes -5.3561
lfemur -11.8556 1.75736 31.5443
ltibia 8.71416
lfoot -0.384446 36.4435
ltoes 24.407
785
root -5.98404 18.3895 8.61262 -85.0679 32.9516 -92.6205
lowerback 42.0614 -4.13236 6.91716
upperback 5.08328 1.05362 11.9945
thorax -14.9448 0.669497 9.29516
lowerneck 1.76551 -13.1464 -13.6835
upperneck 6.08582 -20.0493 26.0647
head 5.71303 -9.74907 9.12312
rclavicle -4.92986e-014 -5.40694e-014
rhumerus -45.1927 0.710942 -59.3093
rradius 45.6317
rwrist 20.8828
rhand -21.3625 -45.2084
rfingers 7.12502
rthumb 5.0243 -75.1288
lclavicle -4.92986e-014 -5.40694e-014
lhumerus 43.6182 -29.9798 53.2605
lradius 77.891
lwrist 32.449
lhand -8.62937 4.46978
lfingers 7.12502
lthumb 17.3032 33.7195
rfemur -77.4132 -55.2719 -2.25402
rtibia 114.588
rfoot -24.1996 -1.28735
rtoes -10.2099
lfemur -14.3127 -0.246802 33.8048
ltibia 12.8297
lfoot -1.03897 36.6297
ltoes 22.6504
786
root -5.99902 18.3349 8.7397 -86.8497 34.1475 -94.0749
lowerback 42.1206 -4.05233 6.21808
upperback 5.09329 0.777786 11.6685
thorax -14.9251 0.576251 9.41994
lowerneck 1.89286 -13.4076 -14.0084
upperneck 6.11501 -20.4194 25.8282
head 5.78449 -9.95367 9.04115
rclavicle -1.90833e-014 -9.54166e-015
rhumerus -44.8529 -0.514641 -58.2264
rradius 46.2859
rwrist 20.1057
rhand -21.6147 -45.7891
rfingers 7.12502
rthumb 4.78086 -75.7152
lclavicle -1.90833e-014 -9.54166e-015
lhumerus 42.3491 -30.4829 53.9987
lradius 78.7764
lwrist 32.7907
lhand -7.62722 3.99997
lfingers 7.12502
lthumb 18.2675 33.1622
rfemur -81.0079 -60.571 0.926482
rtibia 121.283
rfoot -24.964 1.82203
rtoes -2.86586
lfemur -16.6709 -0.0622315 32.6629
ltibia 16.2032
lfoot -2.83604 35.3504
ltoes 22.6509
787
root -5.9984 18.2738 8.86494 -88.3669 37.0123 -95.3992
lowerback 41.6812 -3.5592 4.47852
upperback 4.93503 0.314251 10.6621
thorax -14.9011 0.421731 9.39398
lowerneck 2.47499 -13.7665 -13.8112
upperneck 5.88658 -20.9147 25.7078
head 5.68103 -10.2502 8.93646
rclavicle 1.74931e-014 -3.49861e-014
rhumerus -45.2887 -2.18176 -57.3696
rradius 47.2873
rwrist 19.1552
rhand -21.9911 -46.4669
rfingers 7.12502
rthumb 4.41739 -76.4008
lclavicle 1.74931e-014 -3.49861e-014
lhumerus 41.1885 -31.6473 54.4356
lradius 79.8347
lwrist 33.451
lhand -6.60489 3.85584
lfingers 7.12502
lthumb 19.2508 32.923
rfemur -86.093 -66.8492 3.753
rtibia 127.553
rfoot -26.3256 5.05514
rtoes -10.0562
lfemur -18.8661 -0.108806 29.5609
ltibia 19.345
lfoot -4.11955 34.4172
ltoes 22.0054
788
root -5.99688 18.206 8.9906 -89.3657 39.6638 -96.4122
lowerback 40.8728 -2.94496 2.4507
upperback 4.95718 -0.0840912 9.97237
thorax -14.5545 0.313578 9.847
lowerneck 2.73166 -13.9641 -14.1
upperneck 5.63297 -21.1617 25.5854
head 5.6288 -10.4136 8.91745
rclavicle -5.56597e-014 2.22639e-014
rhumerus -45.1619 -3.30158 -56.3705
rradius 48.4423
rwrist 17.998
rhand -22.3423 -47.1983
rfingers 7.12502
rthumb 4.07825 -77.139
lclavicle -5.56597e-014 2.22639e-014
lhumerus 39.5659 -32.1386 55.256
lradius 80.9841
lwrist 34.288
lhand -5.90659 3.9055
lfingers 7.12502
lthumb 19.9222 32.9043
rfemur -95.3814 -72.5858 11.2756
rtibia 133.39
rfoot -27.0406 8.0008
rtoes -12.8745
lfemur -20.9589 0.626384 26.6428
ltibia 22.4046
lfoot -5.30846 33.2567
ltoes 21.2165
789
root -5.99806 18.1308 9.10712 -90.3313 41.7502 -97.4031
lowerback 40.2663 -2.50853 1.01865
upperback 4.89838 -0.361762 9.32953
thorax -14.3578 0.23277 9.9963
lowerneck 2.96695 -14.1401 -14.3559
upperneck 5.45386 -21.3989 25.5211
head 5.60503 -10.5639 8.91355
rclavicle 9.70069e-014 8.90555e-014
rhumerus -45.1687 -4.20747 -55.576
rradius 49.8361
rwrist 16.6374
rhand -23.3845 -47.0814
rfingers 7.12502
rthumb 3.0718 -77.039
lclavicle 9.70069e-014 8.90555e-014
lhumerus 37.7045 -32.6407 56.0705
lradius 82.1419
lwrist 35.021
lhand -5.65946 4.09568
lfingers 7.12502
lthumb 20.1597 33.0697
rfemur -111.177 -77.1898 26.4967
rtibia 138.843
rfoot -27.5535 9.51138
rtoes -14.9822
lfemur -22.8886 1.89513 24.2598
ltibia 25.1914
lfoot -6.40523 31.6976
ltoes 20.4361
790
root -5.9978 18.0526 9.20831 -91.2457 42.9943 -98.5074
lowerback 39.7174 -2.31215 0.560203
upperback 4.70885 -0.451156 8.82253
thorax -14.3529 0.202398 9.69626
lowerneck 3.33693 -14.3725 -14.4444
upperneck 5.26868 -21.7105 25.3732
head 5.54159 -10.7578 8.85701
rclavicle -4.13472e-014 3.18055e-015
rhumerus -45.4468 -5.11832 -54.7908
rradius 51.3935
rwrist 15.5435
rhand -23.528 -47.5213
rfingers 7.12502
rthumb 2.93318 -77.4808
lclavicle -4.13472e-014 3.18055e-015
lhumerus 35.6945 -33.308 57.0507
lradius 83.2461
lwrist 35.4438
lhand -5.78445 4.47431
lfingers 7.12502
lthumb 20.0396 33.4609
rfemur -132.706 -79.4249 49.2101
rtibia 143.48
rfoot -26.2782 11.1153
rtoes -14.0296
lfemur -24.8118 3.55756 22.7084
ltibia 27.6679
lfoot -7.30514 29.7738
ltoes 19.2417
791
root -5.99458 17.9774 9.29761 -92.6956 43.6509 -99.7893
lowerback 39.715 -2.31334 0.598047
upperback 4.62729 -0.47658 8.54794
thorax -14.4306 0.189085 9.37428
lowerneck 3.42233 -14.6062 -14.6256
upperneck 5.1978 -22.02 25.1676
head 5.56499 -10.9263 8.76946
rclavicle 6.52014e-014 -9.54166e-015
rhumerus -45.4963 -5.89325 -53.9982
rradius 53.0173
rwrist 14.3732
rhand -23.77 -47.9085
rfingers 7.12502
rthumb 2.69951 -77.8712
lclavicle 6.52014e-014 -9.54166e-015
lhumerus 33.591 -33.6997 57.9808
lradius 84.2184
lwrist 35.508
lhand -5.82676 4.81701
lfingers 7.12502
lthumb 19.9989 33.8079
rfemur -149.499 -79.9035 68.7612
rtibia 147.058
rfoot -25.9763 11.4082
rtoes -14.6195
lfemur -26.3981 5.24534 21.6717
ltibia 29.9315
lfoot -8.05394 27.5088
ltoes 17.8123
792
root -5.98314 17.9079 9.37538 -95.0784 44.4117 -101.548
lowerback 40.3068 -2.47929 0.629114
upperback 4.63485 -0.666903 8.27631
thorax -14.5883 0.107762 9.15013
lowerneck 3.64875 -14.7673 -14.8617
upperneck 4.92208 -22.2219 25.1435
head 5.51038 -11.0595 8.78121
rclavicle 4.6118e-014 9.54166e-015
rhumerus -45.3602 -6.59363 -53.211
rradius 54.6138
rwrist 13.3434
rhand -24.029 -47.8924
rfingers 7.12502
rthumb 2.44933 -77.8581
lclavicle 4.6118e-014 9.54166e-015
lhumerus 31.3524 -33.9055 59.0645
lradius 85.1184
lwrist 35.1842
lhand -6.11795 4.85838
lfingers 7.12502
lthumb 19.719 33.8782
rfemur -159.008 -80.3432 81.3436
rtibia 149.445
rfoot -26.8807 10.236
rtoes -18.6232
lfemur -27.5677 6.18584 20.4275
ltibia 31.9979
lfoot -8.93276 25.3514
ltoes 16.4357
793
root -5.95841 17.837 9.46624 -96.3284 45.1936 -102.765
lowerback 39.8533 -2.37177 0.464745
upperback 4.61855 -0.677674 8.00573
thorax -14.4355 0.102591 8.91765
lowerneck 3.90107 -14.9592 -14.8849
upperneck 4.66797 -22.4581 25.064
head 5.4325 -11.2062 8.7419
rclavicle 2.8625e-014 -5.725e-014
rhumerus -45.3455 -7.34352 -52.4714
rradius 56.2607
rwrist 12.2346
rhand -24.1099 -48.2193
rfingers 7.12502
rthumb 2.37121 -78.1859
lclavicle 2.8625e-014 -5.725e-014
lhumerus 29.0425 -34.1726 60.149
lradius 85.8486
lwrist 34.6357
lhand -5.78113 5.04177
lfingers 7.12502
lthumb 20.0427 34.028
rfemur -156.384 -79.3801 81.9865
rtibia 150.634
rfoot -25.9142 10.8666
rtoes -17.7173
lfemur -28.9223 7.92928 19.2142
ltibia 33.9167
lfoot -9.80341 23.2509
ltoes 15.0936
794
root -5.92854 17.7649 9.5639 -97.4133 46.3132 -103.934
lowerback 39.1992 -2.03201 -0.347349
upperback 4.57879 -0.659696 7.88571
thorax -14.2498 0.142566 9.19678
lowerneck 4.23922 -15.096 -15.0882
upperneck 4.41707 -22.6248 24.95
head 5.34297 -11.3279 8.73661
rclavicle -6.52014e-014 3.18055e-014
rhumerus -45.154 -7.66289 -51.6252
rradius 57.8382
rwrist 11.1014
rhand -24.3129 -48.5724
rfingers 7.12502
rthumb 2.17512 -78.541
lclavicle -6.52014e-014 3.18055e-014
lhumerus 26.3189 -34.1736 61.7416
lradius 86.5931
lwrist 34.1222
lhand -5.39109 5.29906
lfingers 7.12502
lthumb 20.4176 34.2456
rfemur -147.071 -77.8046 75.3201
rtibia 150.795
rfoot -26.005 10.9495
rtoes -18.5077
lfemur -30.2437 9.63216 17.6657
ltibia 35.7294
lfoot -10.8239 21.1644
ltoes 14.3832
